<svg width="474" height="461" viewBox="0 0 474 461" fill="none" xmlns="http://www.w3.org/2000/svg">
<rect width="474" height="461" fill="#FFFCB1"/>
<path fill-rule="evenodd" clip-rule="evenodd" d="M82.8752 161.164C85.5953 160.832 88.4986 160.949 91.0282 162.023C96.4073 164.306 97.9363 170.661 97.8625 175.826C97.783 181.386 96.6024 187.458 100.829 191.937C102.772 193.996 105.189 195.572 107.097 197.67C109.135 199.911 110.735 202.475 111.919 205.228C114.093 210.286 115.161 216.234 113.172 221.54C111.421 226.211 107.016 230.427 107.968 235.739C108.961 241.28 114.548 245.516 118.041 249.644C121.993 254.315 125.633 260.284 126.231 266.41C126.804 272.28 124.249 278.216 120.327 282.654C112.492 291.52 100.715 295.867 88.8401 295.84C83.7983 295.829 78.0899 295.601 73.7389 292.891C72.3942 292.054 71.6848 291.114 70.8854 289.808C70.1686 288.637 69.2218 287.875 68.1259 287.047C65.7181 285.226 63.9793 282.773 62.8696 280.027C58.5605 269.36 62.0046 256.165 68.0363 246.693C69.4656 244.449 70.6358 242.289 69.9414 239.614C69.2169 236.822 67.436 234.304 65.8609 231.904C64.3044 229.532 62.5275 227.269 61.311 224.704C60.0369 222.017 59.6781 219.204 59.9032 216.263C60.3263 210.74 62.7107 205.643 66.0863 201.201C69.3378 196.922 73.1555 192.828 73.164 187.222C73.1734 181.28 69.201 175.995 70.8933 169.954C71.594 167.452 73.0015 164.886 75.2696 163.386C77.4448 161.948 80.3169 161.477 82.8752 161.164Z" fill="#AC8EFF"/>
<path fill-rule="evenodd" clip-rule="evenodd" d="M81.098 170.664C81.149 169.865 82.0956 169.387 82.8408 169.595C83.8217 169.869 83.8028 170.786 83.7769 171.602C83.6975 174.112 84.0608 176.551 84.6641 178.987C85.9181 184.05 88.2356 188.715 90.0716 193.578C91.906 198.438 92.7671 203.455 91.6909 208.597C90.6765 213.445 89.0827 218.168 88.0445 223.022C87.1294 227.301 86.1556 231.813 87.5492 236.08C88.8902 240.188 91.8549 243.534 93.9898 247.246C98.4092 254.931 100.37 263.456 100.632 272.229C100.754 276.303 100.644 280.415 99.6991 284.41C99.1551 286.711 98.4241 289.821 96.4525 291.409C95.5433 292.141 93.9884 292.395 93.2232 291.31C92.5049 290.293 93.1351 288.718 93.3631 287.633C94.3508 282.939 94.5495 278.142 94.3131 273.375C94.0842 268.758 93.5387 264.149 92.0856 259.739C90.737 255.647 88.6881 251.972 86.2767 248.392C83.8195 244.744 81.265 241.089 80.2497 236.766C79.2181 232.376 80.0562 227.909 81.1768 223.603C82.3618 219.049 83.9141 214.625 85.5188 210.193C87.0827 205.875 87.637 201.79 86.7737 197.27C85.0682 188.342 80.5032 179.961 81.098 170.664Z" fill="#8357FF"/>
<path fill-rule="evenodd" clip-rule="evenodd" d="M154.696 171.998C158.062 173.02 161.405 174.669 163.805 177.255C168.907 182.754 167.342 191.064 164.525 197.134C161.493 203.668 156.899 210.235 159.489 217.731C160.679 221.177 162.681 224.298 163.81 227.771C165.016 231.481 165.537 235.346 165.471 239.219C165.348 246.331 163.456 253.921 158.319 259.161C153.797 263.774 146.402 266.469 144.71 273.246C142.946 280.316 147.259 288.232 149.175 294.93C151.342 302.51 152.456 311.463 149.919 319.018C147.489 326.259 141.354 331.951 134.409 335.158C120.533 341.568 104.422 340.582 90.5077 334.372C84.6003 331.736 78.0253 328.497 74.3541 323.029C73.2195 321.339 72.8841 319.859 72.6368 317.898C72.4152 316.14 71.7073 314.747 70.8599 313.197C68.998 309.792 68.2552 305.986 68.4052 302.161C68.989 287.304 80.0033 273.491 92.0844 265.427C94.9469 263.516 97.4608 261.571 98.0603 258.047C98.6863 254.368 97.9286 250.463 97.3498 246.805C96.778 243.19 95.8899 239.59 95.8187 235.924C95.7444 232.083 96.8107 228.569 98.6289 225.209C102.045 218.897 107.535 214.11 113.842 210.613C119.918 207.244 126.559 204.388 129.533 197.763C132.684 190.741 130.819 182.423 135.997 176.159C138.141 173.565 141.148 171.262 144.601 170.669C147.913 170.099 151.53 171.037 154.696 171.998Z" fill="#AC8EFF"/>
<path fill-rule="evenodd" clip-rule="evenodd" d="M147.82 183.61C148.298 182.692 149.655 182.621 150.417 183.259C151.421 184.097 150.919 185.173 150.461 186.126C149.053 189.057 148.201 192.136 147.631 195.336C146.445 201.989 146.712 208.728 146.312 215.45C145.912 222.166 144.291 228.559 140.339 234.085C136.614 239.295 132.277 244.052 128.521 249.256C125.21 253.844 121.708 258.676 121.103 264.461C120.519 270.028 122.234 275.544 122.786 281.059C123.929 292.476 121.757 303.6 117.469 314.127C115.477 319.015 113.196 323.826 109.998 328.063C108.157 330.502 105.674 333.801 102.537 334.649C101.09 335.04 99.139 334.525 98.8124 332.839C98.5052 331.258 100.067 329.723 100.902 328.558C104.515 323.517 107.26 317.94 109.48 312.171C111.63 306.584 113.406 300.839 114.016 294.856C114.583 289.303 114.112 283.877 113.167 278.374C112.204 272.766 111.132 267.098 112.208 261.447C113.301 255.708 116.621 250.857 120.186 246.345C123.957 241.572 128.089 237.147 132.286 232.74C136.377 228.446 139.164 223.898 140.522 218.094C143.204 206.627 142.255 194.31 147.82 183.61Z" fill="#7D50FF"/>
<path fill-rule="evenodd" clip-rule="evenodd" d="M50.6351 214.176C56.2322 214.176 61.153 217.143 64.5437 221.353C68.5128 226.282 69.3145 232.3 70.9262 238.174C71.7282 241.097 73.1076 243.999 75.5249 245.985C77.7235 247.791 80.5147 248.153 83.1463 249.035C88.4058 250.799 92.6528 255.047 94.33 260.23C96.3762 266.553 94.2089 272.93 94.5821 279.338C94.9246 285.223 100.727 288.894 105.395 291.715C109.999 294.497 114.146 297.101 115.532 302.52C117.002 308.268 117.495 314.683 115.459 320.361C112.069 329.815 102.146 333.978 92.5591 334.623C83.8582 335.209 72.9179 334.289 66.3836 327.974C62.4736 324.194 61.0576 318.908 61.2332 313.65C61.3424 310.379 61.9902 307.139 62.8277 303.979C63.4213 301.74 64.2233 299.509 64.4518 297.195C65.0591 291.037 59.368 289.855 54.5236 288.164C48.3678 286.015 44.0582 281.957 41.0614 276.303C38.2706 271.039 37.0997 265.129 38.7727 259.333C39.6271 256.373 41.1769 253.688 43.2787 251.404C44.204 250.399 45.508 249.561 46.3431 248.504C47.1226 247.518 46.9529 246.24 46.6842 245.085C45.4422 239.749 41.5723 235.331 40.1883 230.004C38.9388 225.197 39.6775 219.213 44.073 216.111C45.972 214.771 48.3139 214.191 50.6351 214.176Z" fill="#6EC7A3"/>
<path fill-rule="evenodd" clip-rule="evenodd" d="M58.2619 228.08C64.1943 234.399 65.8067 242.973 66.28 251.283C66.545 255.942 66.2691 260.857 67.6382 265.377C68.8096 269.246 71.5557 272.203 74.3864 274.998C80.0843 280.624 86.4389 286.344 88.1055 294.486C89.0834 299.264 88.4233 304.2 89.7746 308.926C91.0032 313.222 93.1665 317.442 95.7977 321.069C97.9162 323.99 100.676 326.227 102.992 328.95C103.699 329.781 104.711 331.005 104.419 332.178C104.078 333.552 102.328 333.987 101.086 333.771C98.1901 333.268 95.7527 330.503 93.8594 328.493C91.0909 325.554 88.7384 322.392 86.8262 318.846C84.7035 314.908 82.9943 310.729 82.264 306.31C81.5061 301.726 81.8833 296.949 80.1528 292.55C77.2408 285.148 70.1776 280.78 65.0709 275.011C58.7083 267.822 59.6572 258.875 60.3089 250.032C60.6669 245.172 61.0227 239.684 58.5672 235.247C57.6298 233.554 55.5399 231.974 55.1369 230.049C54.7677 228.285 56.7825 226.503 58.2619 228.08Z" fill="#B0FFDF"/>
<path fill-rule="evenodd" clip-rule="evenodd" d="M64.5881 331.924C64.5885 368.064 70.4862 387 101.622 387C132.757 387 138.655 368.064 138.655 331.924H64.5881Z" fill="#333A7B"/>
<path fill-rule="evenodd" clip-rule="evenodd" d="M130.294 36.0669C125.686 33.7822 119.544 36.4319 122.106 42.4716C124.851 48.9391 134.998 49.019 140.729 48.8908C140.156 48.8608 138.309 42.9299 137.676 42.0337C135.811 39.3899 133.126 37.4739 130.294 36.0669ZM183.379 152.024C184.541 153.018 183.474 152.117 183.379 152.024V152.024ZM125.855 65.3198C123.159 67.3809 123.03 71.0198 125.233 73.483C127.855 76.4153 132.644 76.3085 136.219 76.0228C137.836 75.8933 146.47 75.202 144.423 73.7891C144.581 73.8485 144.91 73.9929 145.262 74.189C145.451 74.8809 145.65 75.5703 145.857 76.2566C145.806 76.2863 145.763 76.3182 145.709 76.3477C145.767 76.322 145.809 76.2941 145.86 76.268C147.937 83.1281 150.892 89.66 154.762 95.7709C153.314 95.2007 151.815 94.7691 150.293 94.577C145.789 94.0073 136.313 97.5077 141.352 103.505C146.183 109.254 153.704 103.086 159.187 102.236C164.506 109.658 170.369 116.771 176.514 123.647C176.138 123.765 175.807 124.011 175.618 124.393C173.153 123.142 170.584 121.353 168.302 120.869C165.01 120.171 158.259 119.748 155.771 122.695C152.71 126.318 155.991 129.261 159.607 129.956C164.85 130.964 171.713 128.403 176.758 126.672C177.335 126.774 177.965 126.605 178.342 126.143C178.453 126.107 178.565 126.071 178.673 126.036C184.896 132.878 191.357 139.494 197.779 145.965C197.71 145.962 197.642 145.958 197.571 145.954C195.896 144.855 194.099 143.954 192.151 143.482C187.646 142.383 182.345 142.378 178.689 145.638C175.047 148.884 173.757 154.561 177.524 158.206C185.066 165.502 196.178 148.866 199.982 148.172C206.508 154.679 213.408 160.759 220.417 166.716C219.621 166.474 218.805 166.295 217.961 166.215C211.088 165.557 194.956 173.983 203.391 182.273C210.741 189.498 219.248 175.593 225.172 170.73C231.777 176.283 238.417 181.797 244.871 187.526C241.351 186.591 237.949 186.453 234.176 187.594C230.271 188.775 223.97 191.724 226.439 196.996C228.949 202.357 236.515 199.917 240.456 198.215C242.605 197.287 246.915 194.153 250.698 192.834C260.997 202.557 269.918 213.267 276.672 225.883C280.888 233.76 284.087 242.176 286.34 250.826C287.777 256.347 290.609 265.619 290.042 272.805C292.745 258.422 287.858 241.147 282.594 228.29C277.753 216.468 270.509 206.09 262.024 196.748C264.154 190.344 282.076 181.107 271.362 175.157C265.672 172.011 259.845 177.231 258.601 182.76C257.747 186.559 259.048 191.333 260.43 195.02C257.76 192.172 254.986 189.416 252.126 186.752C248.175 183.069 244.129 179.493 240.044 175.962C246.775 169.638 253.145 151.56 244.12 148.603C230.793 144.25 237.21 168.909 238.14 173.531C238.404 173.547 238.609 173.467 238.761 173.296C238.686 173.719 238.599 174.172 238.493 174.628C230.675 167.905 222.741 161.315 215.068 154.432C215.759 153.921 216.858 151.968 217.722 150.929C219.671 148.587 221.536 146.14 222.899 143.399C225.052 139.068 227.129 132.161 221.421 129.613C215.214 126.838 212.265 134.651 212.222 139.311C212.192 142.535 213.07 145.597 213.527 148.757C213.67 149.742 213.12 154.184 214.462 152.273C214.399 152.977 214.39 153.488 214.421 153.849C213.044 152.608 211.677 151.352 210.318 150.088C210.381 149.928 210.428 149.754 210.439 149.552C210.511 148.162 209.113 147.627 208.133 148.034C206.34 146.331 204.566 144.606 202.823 142.848C199.128 139.121 195.38 135.289 191.658 131.374C192.466 130.681 192.145 129.72 192.9 128.983C193.654 128.249 195.139 127.842 196.025 127.16C198.255 125.442 200.105 122.939 201.442 120.476C203.65 116.407 206.503 107.87 200.053 105.93C193.405 103.928 190.03 112.146 189.603 117.283C189.52 118.279 190.265 127.247 190.836 130.504C183.948 123.229 177.175 115.682 171.038 108.003C172.899 107.986 178.174 104.173 179.24 103.133C181.843 100.596 185.979 94.9892 181.417 92.0223C177.361 89.3908 172.361 93.2022 170.626 96.9065C170.341 97.5164 169.336 103.194 169.257 105.741C166.717 102.484 164.294 99.2089 162.04 95.9228C160.537 93.7382 159.132 91.4957 157.817 89.2056C158.134 89.0263 158.432 88.7136 158.713 88.3247C165.478 87.1765 174.103 76.6208 166.157 72.9481C162.373 71.2018 158.27 74.8066 156.417 77.758C156.037 78.3618 155.422 81.3974 154.922 83.7919C151.14 76.2052 148.251 68.1734 146.051 59.9383C146.64 59.792 147.139 59.3421 147.205 58.5683C150.489 56.6958 153.083 55.1365 155.376 51.5357C156.8 49.2991 159.366 44.1892 155.18 42.9478C149.733 41.3326 146.312 49.6521 145.866 53.7498C145.814 54.2255 145.816 55.6089 145.834 56.8766C145.645 56.8508 145.454 56.8538 145.266 56.8869C144.015 51.7876 143.017 46.6227 142.223 41.4491C145.196 40.4923 145.71 24.8791 143.73 22.6559C139.306 17.678 136.184 24.8688 136.421 28.6693C136.7 33.1504 138.73 37.2267 141.148 40.8444C141.408 41.2275 141.334 41.2089 141.401 40.6753C141.438 40.939 141.526 41.1337 141.657 41.2747C141.532 43.6335 141.289 46.0485 141.406 48.1358C141.741 54.1132 142.437 60.1254 143.448 66.0259C143.694 67.4609 143.976 68.8843 144.291 70.2953C141.902 68.2596 138.68 66.4509 137.419 65.8853C134.147 64.4187 129.105 62.8353 125.855 65.3198ZM290.426 272.825C290.274 274.91 289.898 276.818 289.196 278.392C289.723 276.6 290.127 274.738 290.426 272.825Z" fill="#565FAC"/>
<g opacity="0.7">
<path opacity="0.7" fill-rule="evenodd" clip-rule="evenodd" d="M219.917 177.247C232.713 176.583 248.538 184.052 249.903 197.961C250.895 208.068 250.588 218.145 252.122 228.236C253.35 236.301 255.945 244.043 259.485 251.389C262.889 258.454 269.95 264.467 271.786 272.014C272.956 276.823 272.301 283.587 270.687 288.291C268.724 294.01 269.767 293.558 273.679 298.357C281.343 307.761 288.245 317.404 293.125 328.636C300.155 344.813 304.764 363.723 302.155 381.431C301.823 383.68 301.43 391.749 298.333 392.313C294.875 392.944 296.492 388.329 296.676 386.838C297.853 377.325 298.899 369.01 297.479 359.349C292.002 322.073 265.261 297.513 247.849 265.876C246.891 264.245 244.871 260.36 243.466 257.797C241.248 253.751 239.018 246.051 236.015 243.051C230.359 237.398 235.559 248.762 236.661 250.931C238.054 253.675 239.587 256.592 241.014 258.996C247.547 270.142 254.839 282.308 261.586 293.798C232.406 300.446 211.855 265.365 204.024 242.301C197.572 223.299 189.853 178.873 219.917 177.247Z" fill="#27A066"/>
<path opacity="0.7" fill-rule="evenodd" clip-rule="evenodd" d="M391.423 141.959C370.031 143.657 356.299 157.772 349.906 177.514C346.461 188.154 346.066 199.083 344.151 210.017C341.271 226.467 335.074 238.933 322.963 250.653C319.211 254.282 316.447 258.009 314.482 261.996C310.581 265.977 307.185 270.481 304.69 275.989C301.504 283.022 300.602 291.461 304.281 298.473C305.271 300.358 307.739 304.143 310.296 305.862C300.72 326.257 295.455 348.594 296.048 370.903C296.407 384.369 297.064 397.841 297.831 411.291C298.038 414.903 299.214 420.866 300.98 414.81C302.597 409.27 300.57 400.573 300.382 394.785C299.469 366.591 298.689 340.956 310.295 314.615C311.512 311.854 312.802 309.115 314.146 306.398C314.225 306.353 314.298 306.298 314.372 306.244C314.424 306.283 314.47 306.326 314.521 306.365C314.607 306.212 314.725 306.029 314.862 305.826C315.247 305.428 315.584 304.925 315.904 304.364C316.933 302.938 318.098 301.262 318.105 300.344C318.105 300.337 318.101 300.326 318.101 300.319C325.286 288.591 333.515 277.509 341.921 266.643C341.857 266.722 351.038 254.222 349.618 261.135C348.934 264.467 342.181 270.81 339.454 274.339C333.421 282.189 326.336 292.136 320.449 301.754C319.657 302.209 318.537 304.445 317.728 306.11C317.281 306.953 316.864 307.804 316.454 308.545C337.315 315.437 353.542 301.554 364.608 285.406C364.621 285.387 364.633 285.367 364.645 285.348C368.013 280.886 371.462 276.456 375.771 272.929C382.961 267.044 390.66 266.005 399.137 263.109C422.254 255.21 432.082 225.251 435.204 203.022C438.726 177.943 421.499 139.486 391.423 141.959Z" fill="#6D15B1"/>
<path opacity="0.7" fill-rule="evenodd" clip-rule="evenodd" d="M349.168 71.7283C327.213 94.5781 316.606 126.271 308.208 156.066C298.827 189.343 292.632 223.134 292.394 257.732C292.238 280.464 291.619 303.337 292.946 326.042C293.417 334.106 294.221 342.183 295.499 350.16C295.604 350.816 298.464 368.627 301.2 364.477C302.756 362.116 298.269 346 297.929 343.316C296.022 328.197 295.579 312.967 295.672 297.739C295.825 272.666 295.086 247.722 297.627 222.741C298.006 219.012 298.306 215.094 299.191 211.446C300.132 207.567 298.934 209.26 301.998 207.724C304.975 206.231 308.654 206.444 311.743 204.572C323.996 197.142 330.263 178.058 335.142 165.536C340.721 151.216 344.112 135.946 346.821 120.877C348.81 109.805 350.232 98.801 351.036 87.5867C351.29 84.0523 351.305 80.3564 351.999 76.8811C352.187 75.9437 353.125 74.2854 353.091 73.4552C353.019 71.6982 351.959 70.6649 351.872 69.1885C350.953 70.0156 350.051 70.8628 349.168 71.7283Z" fill="#6D15B1"/>
<path fill-rule="evenodd" clip-rule="evenodd" d="M229.456 376.165C229.456 413.953 260.09 444.586 297.877 444.586C335.665 444.586 366.299 413.953 366.299 376.165" fill="#6D15B1"/>
<path opacity="0.7" fill-rule="evenodd" clip-rule="evenodd" d="M303.368 376.383H299.752C300.003 371.847 300.334 367.319 301.093 362.833C303.993 345.678 313.061 320.482 332.951 317.698C333.685 317.594 336.384 317.577 339.653 317.769C341.203 316.903 342.938 316.379 344.767 316.259C361.701 315.01 380.612 328.672 388.78 342.888C395.365 354.351 394.256 369.403 390.189 381.58C387.465 389.733 381.521 401.357 371.608 401.47C359.206 401.612 358.608 386.284 358.368 377.323C358.05 365.41 356.544 355.032 347.157 346.912C344.969 345.02 342.578 343.356 340.368 341.49C336.908 338.57 333.083 335.581 332.638 330.75C332.022 324.086 335.784 322.887 341.528 324.125C342.507 324.335 352.37 328.761 350.909 325.263C350.464 324.194 348.835 323.348 346.78 322.713C341.461 322.135 335.119 321.464 333.295 321.865C313.616 326.182 305.954 353.441 303.92 370.759C303.7 372.629 303.522 374.504 303.368 376.383Z" fill="#169A7A"/>
</g>
</svg>
